<?xml version="1.0" encoding="iso-8859-1"?>
<!-- Generator: Adobe Illustrator 19.0.0, SVG Export Plug-In . SVG Version: 6.00 Build 0)  -->
<svg version="1.1" id="Capa_1" xmlns="http://www.w3.org/2000/svg" xmlns:xlink="http://www.w3.org/1999/xlink" x="0px" y="0px"
	 viewBox="0 0 512 512" style="enable-background:new 0 0 512 512;" xml:space="preserve">
<g>
	<path style="fill:#B38A82;" d="M290.104,167.518c-3.637,0-6.831-2.65-7.403-6.355c-3.842-24.862,7.919-44.051,30.692-50.079
		c4.006-1.057,8.109,1.328,9.169,5.331c1.06,4.004-1.327,8.109-5.331,9.17c-15.396,4.075-22.394,15.896-19.706,33.287
		c0.633,4.094-2.173,7.925-6.267,8.558C290.871,167.489,290.484,167.518,290.104,167.518z"/>
	<path style="fill:#B38A82;" d="M297.579,170.264c-0.341,0-0.685-0.024-1.031-0.071c-4.104-0.564-6.973-4.348-6.409-8.451
		c1.271-9.251,6.754-17.46,15.041-22.522c7.52-4.592,16.343-5.813,23.606-3.264c3.908,1.372,5.964,5.652,4.593,9.561
		c-1.372,3.909-5.648,5.966-9.561,4.593c-3.008-1.056-7.157-0.325-10.818,1.912c-4.429,2.705-7.344,6.992-8,11.763
		C304.483,167.541,301.268,170.264,297.579,170.264z"/>
	<path style="fill:#B38A82;" d="M172.61,276.265c-3.58,0-7.185-1.151-10.224-3.525c-81.171-63.418-80.971-120.522-73.628-148.916
		c9.701-37.507,42.806-66.916,82.38-73.183c37.58-5.952,72.468,10.04,93.324,42.778c4.932,7.745,2.654,18.022-5.091,22.955
		c-7.744,4.933-18.021,2.654-22.955-5.09c-13.722-21.542-35.626-31.675-60.078-27.801c-26.694,4.227-48.953,23.785-55.388,48.667
		c-5.306,20.512-4.317,62.648,61.907,114.387c7.235,5.654,8.519,16.102,2.865,23.337C182.445,274.07,177.552,276.265,172.61,276.265
		z"/>
</g>
<path style="opacity:0.1;enable-background:new    ;" d="M172.61,276.265c-3.58,0-7.185-1.151-10.224-3.525
	c-81.171-63.418-80.971-120.522-73.628-148.916c9.701-37.507,42.806-66.916,82.38-73.183c37.58-5.952,72.468,10.04,93.324,42.778
	c4.932,7.745,2.654,18.022-5.091,22.955c-7.744,4.933-18.021,2.654-22.955-5.09c-13.722-21.542-35.626-31.675-60.078-27.801
	c-26.694,4.227-48.953,23.785-55.388,48.667c-5.306,20.512-4.317,62.648,61.907,114.387c7.235,5.654,8.519,16.102,2.865,23.337
	C182.445,274.07,177.552,276.265,172.61,276.265z"/>
<ellipse style="fill:#F5D7B7;" cx="65.54" cy="287.23" rx="65.54" ry="62.44"/>
<path style="fill:#F2CAA7;" d="M79.903,226.313c-18.338,30.201-28.129,65.146-28.129,101.98c0,6.949,0.357,13.675,1.04,20.191
	c4.119,0.772,8.372,1.187,12.729,1.187c36.199,0,65.544-27.955,65.544-62.439C131.087,257.448,109.191,232.553,79.903,226.313z"/>
<path style="fill:#DBB695;" d="M105.468,296.988c-2.852,0-5.576-1.634-6.833-4.398c-4.889-10.755-14.085-17.689-25.231-19.023
	c-10.286-1.231-20.25,2.575-26.017,9.93c-2.557,3.26-7.272,3.83-10.529,1.275c-3.26-2.556-3.831-7.27-1.275-10.53
	c8.978-11.452,24.153-17.418,39.604-15.569c16.471,1.972,29.994,12.071,37.104,27.71c1.714,3.771,0.046,8.217-3.725,9.931
	C107.56,296.771,106.505,296.988,105.468,296.988z"/>
<ellipse style="fill:#F5D7B7;" cx="446.46" cy="287.23" rx="65.54" ry="62.44"/>
<path style="fill:#F2CAA7;" d="M432.097,226.313c18.338,30.201,28.129,65.146,28.129,101.98c0,6.949-0.357,13.675-1.04,20.191
	c-4.119,0.772-8.372,1.187-12.729,1.187c-36.199,0-65.544-27.955-65.544-62.439C380.913,257.448,402.809,232.553,432.097,226.313z"
	/>
<path style="fill:#DBB695;" d="M406.532,296.988c-1.038,0-2.092-0.217-3.099-0.674c-3.771-1.714-5.439-6.16-3.725-9.931
	c7.109-15.639,20.633-25.738,37.103-27.71c15.448-1.852,30.626,4.118,39.604,15.569c2.556,3.26,1.984,7.974-1.275,10.53
	c-3.258,2.556-7.974,1.985-10.529-1.275c-5.767-7.355-15.736-11.16-26.017-9.93c-11.146,1.334-20.342,8.268-25.23,19.023
	C412.108,295.354,409.383,296.987,406.532,296.988z"/>
<path style="opacity:0.1;enable-background:new    ;" d="M98.87,200.272c11.111,22.128,30.636,46.78,63.516,72.468
	c3.039,2.374,6.645,3.525,10.224,3.525c4.942,0,9.835-2.194,13.113-6.391c5.653-7.235,4.37-17.684-2.865-23.337
	c-34.208-26.726-51.008-50.888-58.527-70.833c-4.249,3.426-8.375,7.022-12.351,10.807
	C107.358,190.911,102.991,195.507,98.87,200.272z"/>
<path style="fill:#B38A82;" d="M438.058,328.293c0-100.795-81.51-175.856-182.058-175.856S73.942,227.498,73.942,328.293
	S155.452,462.584,256,462.584S438.058,429.088,438.058,328.293z"/>
<path style="fill:#F5D7B7;" d="M300.124,224.074c-15.923,0-30.923,3.854-44.124,10.634c-13.201-6.78-28.201-10.634-44.124-10.634
	c-52.752,0-95.516,42.072-95.516,93.971c0,65.597,55.316,102.389,139.64,102.389s139.64-36.792,139.64-102.389
	C395.64,266.146,352.876,224.074,300.124,224.074z"/>
<g>
	<ellipse style="fill:#F27281;" cx="177.06" cy="343.44" rx="29.13" ry="23.2"/>
	<ellipse style="fill:#F27281;" cx="334.94" cy="343.44" rx="29.13" ry="23.2"/>
</g>
<g>
	<path style="fill:#464D59;" d="M181.93,323.556c-4.143,0-7.5-3.358-7.5-7.5v-12.503c0-4.142,3.357-7.5,7.5-7.5s7.5,3.358,7.5,7.5
		v12.503C189.43,320.198,186.072,323.556,181.93,323.556z"/>
	<path style="fill:#464D59;" d="M256,346.725L256,346.725c-11.655,0-21.103-9.448-21.103-21.103V310.28
		c0-3.182,2.579-5.761,5.761-5.761h30.684c3.182,0,5.761,2.579,5.761,5.761v15.342C277.103,337.277,267.655,346.725,256,346.725z"/>
	<path style="fill:#464D59;" d="M330.07,323.556c-4.143,0-7.5-3.358-7.5-7.5v-12.503c0-4.142,3.357-7.5,7.5-7.5s7.5,3.358,7.5,7.5
		v12.503C337.57,320.198,334.213,323.556,330.07,323.556z"/>
</g>
<path style="opacity:0.1;enable-background:new    ;" d="M241.758,152.946c-93.891,6.709-167.816,79.357-167.816,175.347
	c0,100.796,81.51,134.291,182.058,134.291c1.748,0,3.489-0.013,5.225-0.033C96.25,367.689,169.942,201.851,241.758,152.946z"/>
<g>
</g>
<g>
</g>
<g>
</g>
<g>
</g>
<g>
</g>
<g>
</g>
<g>
</g>
<g>
</g>
<g>
</g>
<g>
</g>
<g>
</g>
<g>
</g>
<g>
</g>
<g>
</g>
<g>
</g>
</svg>
